<svg version="1.1" id="Layer_1" xmlns="http://www.w3.org/2000/svg" xmlns:xlink="http://www.w3.org/1999/xlink" width="90" height="90"
   viewBox="0 0 90 90" style="enable-background:new 0 0 90 90;" xml:space="preserve">
      <style type="text/css">
        .st0{fill:#00b4ad;}
        .st1{fill:#ffffff;}
      </style>
      <title>GOGETTER ICON</title>
      <path class="st0" d="M23.4,10.8C29.3,4.9,36.5,2,44.9,2c8.1-0.1,15.9,3,21.6,8.8c5.9,5.6,9.1,13.3,9,21.3c0,4.2-1.1,9-3.2,14.4
        c-2,5.3-4.6,10.4-7.6,15.1c-3,4.6-6,9-9,13.1s-5.5,7.4-7.6,9.8L44.9,88c-0.8-0.8-1.9-2-3.3-3.6c-1.4-1.6-3.8-4.7-7.2-9.4
        c-3.5-4.6-6.6-9.2-9.3-13.5c-2.9-4.7-5.4-9.7-7.3-14.8c-2.2-5.5-3.3-10.4-3.3-14.5C14.5,23.7,17.5,16.6,23.4,10.8z"/>
      <path class="st1" d="M29.6,47.1c4,4,9.5,6.3,15.2,6.2c5.8,0.1,11.3-2.2,15.4-6.2c4.2-3.9,6.5-9.3,6.5-15c0.1-5.7-2.3-11.1-6.5-15
        c-4.1-4-9.6-6.3-15.4-6.2c-5.7-0.1-11.2,2.2-15.2,6.2c-4.1,3.9-6.4,9.4-6.3,15C23.3,37.7,25.6,43.2,29.6,47.1z"/>
      <path class="st0" d="M52.6,18.3c0.1,0,0.3,0.1,0.5,0.1c1.4,0.3,2.4,1.6,2.3,3.1c0,0.1,0,0.2,0,0.3c0,0.1,0,0.1,0.1,0.1l1.4,0.9
        c0.1,0,0.1,0.1,0.1,0.2c0,0.2,0,0.3,0,0.5l-2.1-0.6c0,0.3-0.1,0.6-0.1,0.9c-0.4,1.6-2.1,2.5-3.7,2.1c-1.6-0.4-2.5-2.1-2.1-3.6
        c0.1-0.4,0.3-0.8,0.6-1.1c0,0,0-0.1,0-0.2c0.2-1.3,1.3-2.4,2.6-2.5c0,0,0.1,0,0.1,0L52.6,18.3z"/>
      <path class="st0" d="M41.8,29.2c1.1-1.1,2.2-2.3,3.3-3.4l-1.4-1.4c-0.9,0.9-1.8,1.9-2.7,2.8c0,0,0-0.1,0-0.1c0-1.2,0-2.3,0-3.5
        c0-0.1,0-0.1,0-0.1c0.9-0.9,1.8-1.9,2.7-2.8l0,0l8.9,8.5l2.7-2.8c0,0.1,0,0.1,0,0.1v3.5c0,0.1,0,0.1-0.1,0.2
        c-0.9,0.9-1.7,1.8-2.6,2.8l0,0.1c-1.1-1-2.1-2-3.2-3l-3.4,3.5L41.8,29.2z"/>
      <path class="st0" d="M41.5,34.2l-4.6,4.5l-4.4-4.4l2.3-2.3c0.7,0.7,1.4,1.4,2.1,2.1l4.4-4.4l11.3,10.9l-2.2,2.1L41.5,34.2z"/>
      <path class="st0" d="M51,43.3l2.1-2.1l0.4,0l3.4-0.4c0.2,0,0.5-0.1,0.7-0.1c-1.5,1.5-3.1,3-4.6,4.5L51,43.3z"/>
      <path class="st0" d="M28,33.8l4.2-4.2l2,2c-0.1,0.1-0.3,0.2-0.4,0.4c-0.6,0.6-1.2,1.2-1.8,1.8c0,0.1-0.1,0.1-0.2,0.1l-3.7-0.1
        L28,33.8z"/>
      <path class="st0" d="M55.9,29.4v-3.6c0-0.1,0-0.1,0.1-0.2l1.2-1.2c0,0,0,0.1,0,0.1V28c0,0,0,0.1,0,0.1
        C56.7,28.5,56.3,28.9,55.9,29.4L55.9,29.4z"/>
      <path class="st0" d="M40.4,24.1v0.1c0,1.2,0,2.3,0,3.5c0,0.1,0,0.1,0,0.1c-0.4,0.4-0.8,0.8-1.1,1.2c0,0,0,0,0,0h0c0,0,0-0.1,0-0.1
        v-3.5c0-0.1,0-0.1,0-0.1C39.6,24.9,40,24.5,40.4,24.1L40.4,24.1z"/>
    </svg>